#!OML:ASF F:\VICON\USERDATA\INSTALL\rory3\rory3.ASF
:FULLY-SPECIFIED
:DEGREES
82
root 0.8452396658612134 17.868743589750125 37.88514608138548 -5.130477368931688 -3.068919998838487 1.0916069179758527
lfemur -9.490091676440128 -3.467343977304483 -25.474358085009023
ltibia 23.05364918279092
lfoot -6.4139188495933155 -3.700853298407339
ltoes -8.277001131276226
rfemur -19.111732588825387 1.1872237138512824 21.2364384284946
rtibia 74.12335741653769
rfoot 0.2142796468532282 -7.329138337694544
rtoes 9.493938586793849
lowerback 10.56153786936133 0.7998033314539602 -0.999504963623006
upperback 0.3484217480955066 1.0452508926447146 0.42886303082322197
thorax -5.3582420206450605 0.5188496512341707 0.29978364832717014
lowerneck -15.685630298026433 -2.9223610023297844 -2.5093797553869592
upperneck 20.59807916999254 -3.7108131859801183 1.4847844152128271
head 9.172026286773846 -1.7511590022516932 0.34031857557282535
lclavicle -4.491671073459263e-16 -7.737061173172615e-16
lhumerus -34.19642703364177 5.233547552177234 78.46303955675339
lradius 32.41959231559435
lwrist 7.58199751330471
lhand -27.80539647196778 20.811305214421594
lfingers 7.12502
lthumb -1.124635839287906 50.60529148695556
rclavicle -4.507593811871622e-16 -7.744674940936576e-16
rhumerus -27.593282963604864 -16.351059972115557 -79.68172373976194
rradius 26.931648414442215
rwrist 2.731732292375635
rhand -18.12302179620295 22.675608474968797
rfingers 7.12502
rthumb 8.211974046462403 -7.453609785960359
83
root 0.8411248874458981 17.80715422314043 38.444133581723875 -4.599364789602806 -2.975840946564241 0.7901700796123241
lfemur -7.365727562704356 -3.5971544651502017 -25.44734560005562
ltibia 23.422016581764368
lfoot -6.857033471274684 -2.463327112783934
ltoes -8.34178381482487
rfemur -22.84729595918222 1.0629717830431056 21.757635272228068
rtibia 71.46046318784317
rfoot -2.5122423514136187 -6.643561655374276
rtoes 8.453389954535869
lowerback 10.83236897247845 0.4828197640700572 -0.9887892369414557
upperback 0.3332186825661417 0.5837464728525708 0.6283185745531865
thorax -5.468795332349878 0.28209784773689717 0.7554333986646424
lowerneck -15.762605552728683 -2.888230089635304 -2.735496145255822
upperneck 20.64872355131349 -3.6325716664352803 1.5741064626074814
head 9.188145750408907 -1.7175918379091017 0.41154653270580815
lclavicle -4.496113703806849e-16 -7.736505602916395e-16
lhumerus -33.75780210775337 4.464586717946512 78.62562594039957
lradius 32.902956867857455
lwrist 7.779372424515312
lhand -27.699091057094783 21.067303034027642
lfingers 7.12502
lthumb -1.0657491094844949 50.67093421631169
rclavicle -4.502515381462406e-16 -7.740748019043288e-16
rhumerus -28.170089257565138 -16.82134338396849 -79.57970255669089
rradius 26.71829264396357
rwrist 2.71657984368555
rhand -17.89919426490743 22.252490633750984
rfingers 7.12502
rthumb 8.454155217982718 -7.82309837560088
84
root 0.8418697528872099 17.770547898177487 39.01772264377722 -4.235948991381739 -2.1288613555504106 2.256694299141846
lfemur -4.759583409221334 -3.8960440924023865 -27.172472736278188
ltibia 22.782639118071444
lfoot -7.190960619280984 -1.7368809680834643
ltoes -8.779763647213805
rfemur -25.65769727407261 0.47736641906605337 20.42301695447174
rtibia 66.30366497914287
rfoot -4.49893664660444 -7.1364993607851215
rtoes 7.468361175512926
lowerback 11.012601347353453 0.05608400243368633 -2.463069851798137
upperback 0.368674416106834 -0.13076207050664002 0.635233528251251
thorax -5.390466894256395 -0.0638515335232816 1.3757787658710658
lowerneck -15.883772638221606 -2.8769800993341454 -2.9560189026984744
upperneck 20.665688180695916 -3.596155107272466 1.722332222251872
head 9.195202072716796 -1.7031795246389279 0.5093058865098536
lclavicle -4.496488266417324e-16 -7.737220482031565e-16
lhumerus -33.39300824923922 3.7036012632045967 78.6699924596874
lradius 33.38253375220389
lwrist 8.130993249741227
lhand -27.719224166001073 20.988971245189685
lfingers 7.12502
lthumb -1.0842889420134731 50.5014325527562
rclavicle -4.502778730058162e-16 -7.740945027630838e-16
rhumerus -28.71130101339161 -17.16546528231131 -79.39994487601506
rradius 26.515138279938324
rwrist 2.470887197896918
rhand -17.732728123828398 21.986324912438754
rfingers 7.12502
rthumb 8.64565943550407 -8.004289342215579
85
root 0.8082873076937411 17.78203987422469 39.42471494900915 -3.6601361653820024 -1.8455312564785122 1.3221749935615752
lfemur -2.5589065602877143 -3.829570155340037 -26.418711717559916
ltibia 22.093746905806665
lfoot -7.47834048910301 -1.6196927884103798
ltoes -9.576944517981344
rfemur -27.009243363945068 1.7665493203849867 20.763633998204362
rtibia 57.607506658655765
rfoot -5.2818858092194985 -9.127624524799389
rtoes 6.796690195582327
lowerback 11.063742293931327 -0.19978038289176164 -2.0336259225395352
upperback 0.33720614731529636 -0.4656521758034162 0.8669398541793771
thorax -5.427963150859647 -0.23048045384908789 1.8450374561659055
lowerneck -16.018473218033662 -2.8952957450288572 -3.1761794288216825
upperneck 20.620575219426563 -3.614161025142442 1.9766621304824132
head 9.189674032498473 -1.7102845521974774 0.6516097875045596
lclavicle -4.493860102978102e-16 -7.736558366881117e-16
lhumerus -32.79116394738323 3.3352072893882774 78.7447553633587
lradius 33.5986431068567
lwrist 8.854527023083495
lhand -27.934344054461864 20.48912987044993
lfingers 7.12502
lthumb -1.242839717050491 50.05486296640371
rclavicle -4.499025237448905e-16 -7.73803775265425e-16
rhumerus -29.20466383013677 -17.26295858119439 -79.18140739986671
rradius 26.29612385797885
rwrist 2.2758430282198043
rhand -17.620447678475145 21.879269983427513
rfingers 7.12502
rthumb 8.788299501443385 -8.001097774071857
